<?xml version="1.0" standalone="no"?><!DOCTYPE svg PUBLIC "-//W3C//DTD SVG 1.1//EN" "http://www.w3.org/Graphics/SVG/1.1/DTD/svg11.dtd"><svg t="1555183073249" class="icon" style="" viewBox="0 0 1024 1024" version="1.1" xmlns="http://www.w3.org/2000/svg" p-id="3822" xmlns:xlink="http://www.w3.org/1999/xlink" width="200" height="200"><defs><style type="text/css"></style></defs><path d="M508.16 849.706667a332.8 332.8 0 1 1 332.8-332.8 333.226667 333.226667 0 0 1-332.8 332.8z m0-622.933334a290.133333 290.133333 0 1 0 290.133333 290.133334 290.346667 290.346667 0 0 0-290.133333-290.133334z" p-id="3823"></path><path d="M800 827.52A294.186667 294.186667 0 0 1 673.706667 789.333333a1072.64 1072.64 0 0 1-256-194.986666c-158.08-158.933333-285.866667-368-210.56-443.306667 41.173333-41.173333 125.866667-25.173333 238.72 45.226667l-22.613334 36.053333c-100.906667-62.933333-166.186667-71.04-186.026666-51.2-35.84 35.84 27.093333 198.826667 211.2 382.72a1030.4 1030.4 0 0 0 244.693333 187.093333c66.133333 33.92 118.826667 42.666667 138.026667 23.893334s16.213333-70.613333-40.32-167.466667l36.906666-21.333333c59.946667 103.04 71.893333 180.906667 33.493334 219.306666a82.773333 82.773333 0 0 1-61.226667 22.186667z" p-id="3824"></path><path d="M612.053333 486.4a21.333333 21.333333 0 0 1-21.333333-21.333333v-103.893334a21.333333 21.333333 0 0 1 42.666667 0v103.893334a21.333333 21.333333 0 0 1-21.333334 21.333333z" p-id="3825"></path><path d="M663.893333 434.56h-103.68a21.333333 21.333333 0 0 1 0-42.666667h103.68a21.333333 21.333333 0 0 1 0 42.666667z" p-id="3826"></path></svg>