<?xml version="1.0" standalone="no"?><!DOCTYPE svg PUBLIC "-//W3C//DTD SVG 1.1//EN" "http://www.w3.org/Graphics/SVG/1.1/DTD/svg11.dtd"><svg t="1551668143843" class="icon" style="" viewBox="0 0 1024 1024" version="1.1" xmlns="http://www.w3.org/2000/svg" p-id="2239" xmlns:xlink="http://www.w3.org/1999/xlink" width="200" height="200"><defs><style type="text/css"></style></defs><path d="M886.64746667 274.97813333c52.4288-88.4736 63.35146667-145.8176 33.31413333-175.85493333-29.4912-29.4912-76.45866667-22.9376-152.3712 21.2992-8.192 4.9152-13.65333333 12.01493333-16.384 20.20693333-2.73066667 8.73813333-1.6384 18.56853333 3.2768 26.2144 9.28426667 15.29173333 27.8528 20.75306667 45.32906667 13.65333334l1.09226666-0.54613334c39.3216-21.84533333 60.07466667-27.30666667 69.35893334-28.39893333-1.6384 13.65333333-14.7456 50.7904-64.98986667 123.97226667-40.96 59.52853333-116.3264 157.2864-243.02933333 282.89706666-125.06453333 126.1568-223.36853333 201.5232-283.4432 242.4832-67.72053333 45.8752-108.1344 62.2592-123.42613334 64.98986667 2.18453333-13.1072 11.4688-45.8752 50.7904-107.04213333l0.54613334-1.09226667c6.5536-12.56106667 6.00746667-25.66826667-1.09226667-36.0448C164.11306667 662.18666667 140.62933333 586.82026667 140.62933333 509.81546667c0-205.89226667 167.66293333-373.5552 373.5552-373.5552 55.7056 0 108.68053333 12.56106667 161.65546667 37.6832l0.54613333 0.54613333c8.192 3.2768 16.93013333 3.2768 25.12213334 0.54613333 8.73813333-3.2768 15.29173333-9.28426667 18.56853333-18.0224 7.09973333-17.47626667-0.54613333-37.13706667-16.93013333-43.69066666-64.44373333-29.4912-126.70293333-44.2368-191.14666667-44.2368-243.02933333 0-441.27573333 197.70026667-441.27573333 441.27573333 0 81.37386667 22.9376 161.10933333 66.08213333 232.10666667-54.0672 87.38133333-64.98986667 142.5408-33.31413333 173.6704l1.09226666 1.09226666c10.37653333 7.64586667 24.02986667 15.83786667 45.32906667 15.83786667 30.58346667 0 74.27413333-17.47626667 129.4336-52.4288 66.62826667 42.5984 149.0944 66.08213333 232.10666667 66.08213333 243.02933333 0 441.27573333-197.70026667 441.27573333-441.27573333 0.54613333-81.92-23.48373333-163.84-66.08213333-230.46826667z m-40.96 64.44373334c26.2144 49.69813333 39.86773333 108.1344 39.86773333 170.3936 0 204.8-166.57066667 371.37066667-371.37066667 371.37066666-57.89013333 0-115.23413333-13.65333333-170.3936-40.41386666 85.74293333-61.71306667 180.224-143.63306667 268.6976-232.10666667 45.8752-45.32906667 156.19413333-159.47093333 233.19893334-269.24373333z" fill="#515151" p-id="2240"></path><path d="M475.40906667 385.29706667c49.152 0 89.01973333-39.86773333 89.01973333-89.01973334s-39.86773333-89.01973333-89.01973333-89.01973333S386.38933333 246.5792 386.38933333 295.7312c0 48.60586667 40.96 89.56586667 89.01973334 89.56586667z m-38.22933334-91.7504c0-21.2992 16.93013333-38.22933333 38.22933334-38.22933334s38.22933333 16.93013333 38.22933333 38.22933334-16.93013333 38.22933333-38.22933333 38.22933333c-20.75306667 0-38.22933333-16.93013333-38.22933334-38.22933333zM314.29973333 441.00266667c-42.05226667 0-78.09706667 35.49866667-78.09706666 78.09706666 0 42.05226667 35.49866667 78.09706667 78.09706666 78.09706667 43.69066667 0 80.2816-35.49866667 80.2816-78.09706667-0.54613333-43.14453333-36.59093333-78.09706667-80.2816-78.09706666z m0 107.04213333c-14.19946667 0-26.76053333-12.56106667-26.76053333-26.76053333s12.56106667-26.76053333 26.76053333-26.76053334c14.7456 0 28.94506667 13.1072 28.94506667 26.76053334 0 14.7456-13.1072 26.76053333-28.94506667 26.76053333zM641.4336 767.5904c27.8528 0 50.7904-22.39146667 50.7904-50.7904 0-13.65333333-5.46133333-26.2144-14.7456-35.49866667-9.28426667-9.28426667-22.39146667-14.7456-35.49866667-14.7456-27.8528 0-50.24426667 22.39146667-50.24426666 50.24426667 0 13.65333333 5.46133333 26.2144 14.7456 35.49866667 9.28426667 9.8304 21.84533333 15.29173333 34.95253333 15.29173333z" fill="#515151" p-id="2241"></path></svg>